<?xml version="1.0" standalone="no"?>
<!DOCTYPE svg PUBLIC "-//W3C//DTD SVG 20010904//EN"
 "http://www.w3.org/TR/2001/REC-SVG-20010904/DTD/svg10.dtd">
<svg version="1.0" xmlns="http://www.w3.org/2000/svg"
 width="216.000000pt" height="216.000000pt" viewBox="0 0 216.000000 216.000000"
 preserveAspectRatio="xMidYMid meet">
<metadata>
Created by potrace 1.14, written by Peter Selinger 2001-2017
</metadata>
<g transform="translate(0.000000,216.000000) scale(0.100000,-0.100000)"
fill="#000000" stroke="none">
<path d="M567 1999 c-38 -29 -57 -70 -57 -122 0 -136 154 -242 357 -246 l41
-1 -2 -43 c-2 -24 2 -64 9 -90 7 -26 9 -50 4 -52 -4 -3 -35 2 -70 11 -69 18
-146 14 -160 -7 -23 -37 -10 -78 65 -197 7 -12 5 -12 -15 -1 -29 16 -36 17
-69 9 -19 -5 -29 -1 -43 16 -20 26 -38 25 -121 -6 -58 -22 -79 -50 -65 -87 5
-14 4 -24 -1 -24 -6 -1 -14 -2 -19 -3 -17 -2 -94 -51 -115 -73 -43 -44 -67
-83 -71 -115 -2 -20 -16 -44 -36 -62 -44 -41 -87 -112 -105 -171 -53 -182 16
-362 183 -476 23 -17 43 -31 43 -32 0 -2 -8 -3 -17 -3 -162 -6 -227 -43 -102
-59 259 -32 1348 -39 1592 -9 89 11 110 15 124 22 24 14 -7 31 -68 37 -30 4
-67 8 -84 11 -16 3 -221 7 -455 10 -234 3 -426 7 -427 8 -2 2 15 17 37 35 89
71 147 194 149 317 1 37 3 41 24 37 12 -2 33 3 47 11 14 8 39 21 57 30 34 15
53 43 53 74 0 11 7 23 16 26 13 5 15 -1 9 -41 -3 -27 -9 -51 -13 -54 -4 -4
-31 -14 -59 -24 -50 -16 -58 -23 -54 -52 1 -7 -5 -13 -13 -13 -27 0 -46 -42
-46 -104 0 -105 40 -186 93 -186 28 0 63 35 72 72 6 23 10 25 34 18 60 -17
158 21 199 78 18 24 23 25 58 17 31 -8 45 -20 71 -60 44 -67 69 -86 102 -79
53 13 127 82 169 156 28 51 28 78 1 107 -19 20 -28 22 -66 17 -40 -5 -49 -2
-81 24 -31 26 -36 36 -37 76 -1 41 0 45 19 39 12 -3 56 -9 99 -12 59 -4 82 -2
95 9 9 7 31 15 47 17 17 2 35 7 41 12 6 5 18 7 26 4 9 -4 28 5 43 18 25 21 28
30 26 76 -1 42 -8 60 -33 92 -17 21 -39 41 -49 44 -24 8 -94 -14 -119 -37 -11
-10 -20 -14 -20 -8 0 6 7 13 15 16 20 8 72 93 80 132 4 18 20 62 35 96 49 108
69 266 38 304 -12 14 -44 16 -53 2 -12 -19 -22 -10 -46 42 -90 194 -325 357
-576 399 -171 29 -328 8 -532 -72 -115 -45 -180 -52 -212 -23 -19 17 -25 45
-12 57 3 4 14 0 24 -9 24 -22 52 -14 63 18 22 63 -74 103 -137 57z m581 -1025
c-18 -7 -42 -13 -52 -13 -20 -1 -56 25 -56 40 0 15 104 15 123 -1 17 -14 16
-15 -15 -26z"/>
<path d="M125 1759 c-4 -6 -5 -13 -2 -16 8 -8 343 -7 356 1 31 19 -14 26 -174
26 -112 0 -176 -4 -180 -11z"/>
<path d="M355 1670 c-3 -5 0 -13 8 -15 24 -10 212 -1 212 10 0 14 -211 19
-220 5z"/>
<path d="M563 1602 c-5 -4 -13 -17 -17 -28 -4 -12 -16 -24 -26 -27 -25 -7 -26
-24 -1 -32 11 -3 24 -19 30 -35 11 -32 31 -41 31 -14 0 8 14 28 31 44 31 27
31 28 9 35 -12 4 -27 20 -34 35 -7 17 -16 26 -23 22z"/>
<path d="M680 1555 c-14 -17 -21 -16 85 -19 81 -2 96 1 89 18 -8 20 -158 20
-174 1z"/>
<path d="M104 1538 c-11 -18 13 -24 93 -23 62 0 78 3 78 15 0 12 -17 15 -83
16 -45 1 -85 -3 -88 -8z"/>
<path d="M321 1541 c-11 -7 -10 -11 6 -19 22 -12 49 0 39 17 -9 13 -26 14 -45
2z"/>
<path d="M425 1540 c-11 -17 5 -32 21 -19 7 6 11 15 8 20 -7 12 -21 11 -29 -1z"/>
<path d="M194 1368 c-11 -18 10 -28 57 -28 43 0 50 3 47 18 -3 13 -14 17 -51
17 -27 0 -51 -3 -53 -7z"/>
<path d="M354 1371 c-2 -2 -4 -10 -4 -18 0 -10 23 -13 101 -13 90 0 100 2 97
17 -3 15 -16 18 -96 18 -51 0 -95 -2 -98 -4z"/>
<path d="M601 1366 c-12 -14 -5 -26 16 -26 15 0 18 26 4 34 -5 3 -14 0 -20 -8z"/>
<path d="M2090 1336 c-5 -14 -14 -26 -21 -26 -6 0 -9 -6 -6 -12 2 -7 10 -12
16 -10 6 1 11 -7 11 -18 0 -27 10 -25 40 6 22 24 23 27 7 39 -9 7 -17 17 -17
23 0 23 -21 22 -30 -2z"/>
<path d="M104 1238 c-12 -20 12 -28 80 -27 76 1 103 9 92 28 -8 12 -164 12
-172 -1z"/>
<path d="M320 1235 c-12 -14 -3 -23 18 -19 6 1 19 2 28 3 23 2 11 26 -14 27
-12 1 -27 -4 -32 -11z"/>
<path d="M177 1123 c-15 -14 14 -28 52 -25 58 6 56 32 -2 32 -24 0 -47 -3 -50
-7z"/>
<path d="M98 1038 c-2 -13 -13 -27 -25 -33 -28 -12 -29 -25 -4 -32 10 -2 24
-16 30 -30 11 -24 36 -27 36 -4 0 7 11 20 24 30 24 18 22 41 -4 41 -7 0 -16
11 -19 25 -8 31 -33 33 -38 3z"/>
<path d="M10 534 c0 -41 50 -107 67 -90 3 2 -6 27 -19 55 -22 49 -48 68 -48
35z"/>
<path d="M55 380 c-14 -23 60 -99 113 -115 38 -11 26 21 -16 45 -21 12 -47 34
-57 51 -21 31 -30 35 -40 19z"/>
</g>
</svg>
