<?xml version="1.0" standalone="no"?>
<!DOCTYPE svg PUBLIC "-//W3C//DTD SVG 20010904//EN"
 "http://www.w3.org/TR/2001/REC-SVG-20010904/DTD/svg10.dtd">
<svg version="1.0" xmlns="http://www.w3.org/2000/svg"
 width="1024.000000pt" height="1024.000000pt" viewBox="0 0 1024.000000 1024.000000"
 preserveAspectRatio="xMidYMid meet">
<metadata>
Created by potrace 1.14, written by Peter Selinger 2001-2017
</metadata>
<g transform="translate(0.000000,1024.000000) scale(0.100000,-0.100000)"
fill="#000000" stroke="none">
<path d="M8225 7052 c2 -23 17 -56 28 -63 4 -3 1 -13 -7 -22 -14 -14 -13 -16
16 -26 32 -11 54 -7 24 5 -9 3 -13 11 -10 16 4 5 -4 23 -16 40 -12 16 -19 35
-16 43 2 7 -1 16 -8 18 -8 3 -12 -1 -11 -11z"/>
<path d="M3335 7051 c-65 -17 -160 -80 -210 -139 -32 -39 -55 -109 -45 -137
18 -46 43 -57 126 -51 125 8 183 28 249 88 16 16 33 28 37 28 13 0 48 78 48
104 0 35 -19 73 -45 90 -27 17 -120 27 -160 17z"/>
<path d="M6735 7053 c-74 -11 -116 -113 -71 -171 29 -38 101 -102 120 -108 11
-3 40 -15 64 -26 55 -26 157 -39 197 -25 111 39 72 175 -80 274 -82 54 -142
68 -230 56z"/>
<path d="M8210 7014 c0 -5 7 -19 15 -30 8 -10 15 -14 15 -8 0 5 -7 19 -15 30
-8 10 -15 14 -15 8z"/>
<path d="M1917 6975 c2 -7 -6 -15 -19 -18 -18 -5 -24 -14 -26 -39 -2 -18 -9
-36 -17 -41 -8 -4 -15 -16 -15 -25 0 -9 -11 -37 -24 -62 -13 -25 -33 -72 -44
-105 -11 -33 -30 -84 -41 -113 -10 -29 -20 -55 -20 -57 -1 -3 -1 -6 -2 -7 0
-2 -2 -14 -5 -28 -12 -78 -15 -88 -37 -170 -8 -30 -15 -64 -15 -75 0 -34 -24
-145 -31 -145 -4 0 -25 20 -46 44 -38 42 -41 43 -59 28 -11 -10 -16 -11 -12
-4 4 7 2 12 -4 12 -8 0 -10 -9 -6 -24 3 -14 1 -28 -5 -31 -17 -11 -27 -48 -18
-71 4 -12 4 -25 -1 -30 -5 -5 -5 -15 1 -24 8 -11 12 -12 16 -2 8 20 22 14 16
-8 -3 -11 -1 -20 5 -20 6 0 8 -9 5 -20 -5 -19 -6 -19 -18 -3 -10 14 -12 8 -13
-38 -1 -30 2 -59 6 -66 4 -7 5 -41 2 -77 -3 -37 -3 -66 0 -66 7 0 2 -116 -9
-210 -5 -41 -7 -78 -4 -82 2 -4 -3 -5 -11 -2 -9 3 -16 10 -16 15 0 5 -6 9 -14
9 -7 0 -32 20 -55 45 -23 25 -46 45 -51 45 -6 0 -10 9 -10 21 0 11 -4 17 -10
14 -5 -3 -10 1 -10 9 0 9 -5 16 -10 16 -6 0 -15 11 -20 25 -5 14 -14 25 -20
25 -5 0 -10 6 -10 13 0 8 -17 38 -38 68 -22 30 -42 67 -46 82 -4 16 -11 34
-17 40 -6 7 -41 73 -79 147 -177 349 -156 310 -220 406 -63 93 -187 231 -226
252 -11 5 -31 9 -47 7 -16 -2 -25 1 -21 7 3 5 12 7 20 4 8 -3 14 -1 14 4 0 6
-6 10 -14 10 -8 0 -17 6 -19 13 -3 7 -6 4 -6 -6 -1 -10 -5 -16 -10 -12 -5 3
-13 -5 -17 -17 -8 -27 -24 -43 -44 -43 -11 0 -14 -10 -12 -41 2 -28 -2 -45
-13 -54 -9 -7 -15 -9 -14 -4 3 18 -1 34 -10 34 -5 0 -9 -11 -9 -24 0 -22 4
-24 37 -21 20 1 31 1 24 -2 -7 -2 -9 -11 -6 -19 4 -10 0 -12 -11 -8 -9 3 -16
1 -16 -4 0 -6 8 -13 18 -15 9 -2 7 -3 -5 -2 -12 1 -24 -3 -26 -9 -3 -6 -3 2
-1 17 2 17 0 26 -6 22 -15 -9 -13 -96 3 -92 7 1 11 -6 10 -18 -1 -11 0 -14 3
-7 9 19 44 15 42 -5 -1 -10 0 -27 1 -38 1 -16 3 -17 11 -5 5 8 12 11 16 7 4
-3 1 -13 -5 -21 -9 -11 -10 -20 -2 -33 9 -16 10 -15 11 10 0 21 5 27 21 27 18
0 19 -2 9 -15 -11 -13 -7 -17 21 -27 31 -11 32 -12 10 -20 -15 -5 -20 -12 -14
-20 4 -7 7 -22 5 -33 l-2 -20 9 20 c5 11 7 23 4 28 -2 4 1 7 7 7 7 0 10 -6 7
-12 -2 -7 0 -21 5 -30 5 -12 5 -18 -2 -18 -5 0 -10 -4 -10 -10 0 -5 7 -10 15
-10 11 0 14 -7 9 -25 -4 -15 -2 -25 5 -25 6 0 10 -3 9 -7 0 -5 1 -15 5 -23 23
-61 34 -111 29 -135 -4 -22 -2 -27 9 -23 10 4 15 -4 16 -29 2 -38 13 -56 20
-35 3 6 12 12 21 12 15 -1 15 -2 -1 -14 -24 -19 -20 -72 5 -68 12 2 16 -2 12
-13 -3 -8 -10 -15 -14 -15 -5 0 -3 -11 3 -25 13 -26 22 -31 32 -15 3 5 13 6
21 3 9 -3 20 0 25 8 6 9 9 10 9 2 0 -6 -5 -15 -10 -18 -6 -4 -8 -11 -5 -16 4
-5 1 -9 -4 -9 -6 0 -11 -6 -11 -13 0 -8 -7 -14 -15 -14 -20 0 -19 14 1 25 10
6 14 14 9 22 -6 9 -11 6 -21 -11 -18 -33 -17 -38 11 -51 14 -6 24 -17 21 -24
-3 -7 2 -11 9 -10 18 3 32 16 18 16 -6 0 -13 11 -15 25 -4 19 -1 25 13 25 11
0 19 7 19 15 0 8 4 15 9 15 4 0 8 -8 8 -17 0 -51 4 -64 16 -58 6 4 3 -1 -7 -9
-11 -9 -23 -16 -28 -16 -4 0 -8 -4 -8 -10 0 -5 7 -10 16 -10 8 0 12 -4 9 -10
-3 -6 1 -7 10 -4 9 4 14 13 11 20 -3 8 -2 14 3 14 14 0 21 -13 12 -24 -5 -6
-5 -20 -1 -31 8 -19 8 -19 18 5 9 22 18 13 13 -14 -1 -5 6 -5 16 -1 10 4 24 9
31 12 6 3 12 -2 12 -11 0 -15 -20 -19 -91 -20 -10 0 -15 -5 -12 -11 2 -7 17
-11 34 -9 26 3 28 1 20 -14 -7 -14 -6 -19 4 -19 8 0 12 4 9 8 -2 4 0 10 6 14
6 4 8 10 5 15 -6 9 50 19 63 11 20 -13 31 -48 20 -59 -8 -8 -8 -15 2 -27 7 -9
9 -15 4 -14 -21 4 -35 -2 -29 -11 3 -5 -1 -10 -9 -10 -9 0 -16 -4 -16 -10 0
-15 11 -12 32 7 11 9 18 11 18 5 0 -7 7 -12 16 -12 13 0 15 7 10 33 -6 32 -5
32 8 7 11 -18 11 -28 3 -38 -8 -10 -7 -16 3 -22 8 -5 18 -6 24 -3 5 3 6 1 3
-4 -4 -6 0 -13 8 -17 17 -6 20 -26 4 -26 -5 0 -8 4 -5 9 10 16 -18 19 -54 5
-23 -8 -28 -13 -15 -13 11 -1 27 -6 35 -11 13 -9 12 -13 -7 -29 l-21 -18 28 0
c15 0 27 5 26 11 -2 6 -1 8 1 4 3 -5 11 -8 18 -8 7 0 20 -11 29 -25 16 -24 16
-25 -10 -15 -29 11 -54 3 -33 -11 12 -8 12 -11 -1 -18 -8 -6 -11 -14 -6 -18 4
-4 13 0 20 10 14 18 42 25 31 7 -8 -13 8 -13 22 1 7 7 13 7 17 1 3 -6 -6 -20
-21 -32 -21 -16 -24 -23 -14 -30 11 -6 10 -9 -5 -12 -13 -3 -7 -7 19 -12 20
-5 37 -12 37 -17 0 -5 8 -9 18 -9 15 -1 15 -2 -3 -12 -19 -11 -19 -11 0 -20
14 -6 7 -7 -20 -4 -38 5 -39 4 -16 -8 18 -10 20 -15 10 -19 -10 -4 -10 -6 -1
-6 6 -1 12 -8 12 -17 0 -13 -8 -11 -37 12 -30 22 -34 23 -19 5 11 -12 37 -32
58 -43 21 -12 38 -25 38 -28 0 -21 244 -150 283 -150 7 0 17 -3 21 -7 3 -4 16
-8 28 -10 12 -2 26 -7 32 -12 6 -5 20 -10 31 -12 15 -3 23 -20 36 -76 l16 -71
-26 16 c-19 13 -23 13 -16 3 6 -11 4 -13 -8 -8 -10 4 -20 0 -25 -10 -8 -13
-10 -13 -16 2 -5 14 -9 15 -20 6 -8 -7 -17 -8 -20 -3 -8 13 -51 6 -48 -7 2 -8
-4 -10 -17 -6 -14 4 -23 0 -31 -15 -6 -11 -20 -20 -31 -20 -12 0 -23 -8 -26
-19 -3 -12 -11 -17 -19 -14 -17 6 -18 -9 -2 -25 7 -7 9 -12 5 -12 -3 0 4 -10
16 -23 12 -13 26 -21 31 -19 4 3 12 -1 16 -7 4 -7 18 -13 31 -15 13 -2 31 -6
39 -10 31 -12 213 -44 226 -39 15 5 53 -67 54 -99 0 -10 5 -18 10 -18 6 0 10
-6 10 -14 0 -8 4 -16 8 -18 4 -1 18 -28 31 -58 13 -30 36 -74 52 -98 16 -24
29 -47 29 -51 0 -10 82 -125 92 -129 4 -2 8 -8 8 -14 0 -36 240 -289 358 -378
39 -30 72 -58 72 -63 0 -4 4 -5 10 -2 5 3 15 -3 22 -15 7 -11 18 -20 24 -20 6
0 17 -7 24 -15 7 -8 16 -13 20 -10 4 3 10 -2 14 -10 3 -8 11 -15 18 -15 7 0
26 -11 41 -25 15 -14 27 -23 27 -20 0 4 12 -2 28 -13 47 -34 160 -94 262 -140
36 -16 81 -36 100 -45 52 -23 136 -56 215 -84 78 -27 72 -25 138 -43 26 -7 47
-16 47 -21 0 -5 8 -9 19 -9 10 0 35 -7 55 -15 20 -9 41 -13 45 -11 5 3 16 -3
25 -13 15 -17 14 -21 -19 -64 -19 -25 -35 -51 -35 -56 0 -6 -5 -11 -10 -11 -6
0 -13 -8 -17 -17 -3 -10 -14 -27 -23 -38 -27 -31 -80 -134 -80 -155 0 -10 -4
-20 -10 -22 -5 -1 -11 -13 -13 -25 -1 -11 -9 -28 -16 -37 -14 -16 -6 -60 10
-51 5 4 9 -8 9 -25 0 -18 4 -29 10 -25 6 3 10 1 10 -6 0 -7 3 -10 6 -6 8 7 34
-17 34 -32 0 -6 -5 -11 -11 -11 -6 0 4 -12 23 -28 18 -15 35 -30 36 -35 2 -4
8 -5 12 -2 5 3 11 1 15 -5 3 -5 0 -10 -7 -11 -7 0 -3 -4 10 -10 13 -5 20 -13
17 -19 -3 -5 -1 -10 4 -10 15 0 14 33 -1 48 -7 7 2 6 20 -3 28 -15 38 -31 33
-58 -1 -4 10 0 24 9 30 19 29 22 14 -96 -9 -70 -15 -177 -19 -350 0 -14 -4
-20 -8 -15 -13 18 -53 17 -87 -4 -19 -11 -35 -16 -35 -10 0 6 -4 7 -10 4 -14
-8 11 -34 28 -28 7 3 19 0 27 -7 12 -10 15 -10 15 0 0 7 8 10 19 7 13 -3 21 1
24 12 4 13 5 13 6 -3 1 -15 4 -16 15 -6 16 13 15 19 37 -145 6 -49 13 -97 14
-105 27 -138 91 -316 136 -379 37 -51 133 -126 150 -115 4 2 10 0 14 -6 16
-25 146 -45 295 -44 149 2 273 44 345 119 27 28 75 125 75 152 0 12 5 25 10
28 6 3 10 19 10 34 0 45 20 88 43 96 12 4 45 6 72 5 102 -5 433 -4 509 1 70 5
81 4 102 -15 14 -12 28 -40 34 -66 5 -25 12 -58 16 -75 12 -57 47 -120 89
-160 63 -60 83 -75 103 -75 9 0 37 -10 62 -21 77 -35 304 -31 419 7 117 39
172 80 232 174 16 26 81 204 84 230 0 9 4 20 7 25 5 10 21 93 23 125 1 8 4 38
9 65 4 28 9 65 12 84 6 46 10 51 50 51 23 0 33 4 28 11 -3 6 -15 9 -25 6 -16
-4 -19 1 -20 26 0 27 -2 29 -9 12 -4 -12 -8 36 -9 120 -1 77 -4 153 -6 170 -2
16 -7 50 -10 77 -10 69 -3 82 47 86 45 3 67 15 49 26 -6 4 -11 2 -11 -3 0 -6
-5 -11 -12 -11 -6 0 -2 10 10 23 12 13 19 27 15 30 -3 4 8 5 25 3 17 -2 31 -1
30 3 -2 11 18 52 25 52 19 -2 21 0 7 9 -11 7 -11 10 -2 10 7 0 10 4 7 10 -3 5
0 7 8 4 19 -7 34 16 17 26 -9 5 -9 9 -1 14 6 4 9 12 6 17 -4 5 5 9 19 9 15 0
26 7 29 18 4 14 6 14 12 -5 4 -13 11 -23 16 -23 4 0 1 17 -7 37 -36 88 -58
133 -66 133 -4 0 -8 7 -8 16 0 25 -83 159 -167 271 -24 31 -22 40 14 48 90 22
112 29 141 46 19 10 37 17 42 14 5 -3 12 0 15 6 4 5 13 8 21 5 7 -3 16 -1 19
4 4 6 14 10 24 10 10 0 24 7 31 15 7 8 16 13 20 10 4 -3 24 2 44 10 20 8 37
15 38 14 2 -1 21 8 43 20 22 11 47 21 55 21 8 0 24 7 34 15 11 8 28 15 38 15
10 0 18 4 18 9 0 5 13 12 30 16 16 4 32 11 35 16 4 5 15 9 25 9 10 0 20 3 22
8 2 4 32 22 68 40 72 36 83 42 152 90 26 17 52 32 57 32 5 0 18 11 29 25 11
13 22 22 24 19 3 -2 20 9 38 26 18 16 36 30 41 30 4 0 19 10 33 23 14 12 44
38 67 57 88 73 227 208 282 273 67 79 168 235 223 344 27 54 52 100 57 101 4
2 7 8 7 14 0 22 46 109 60 113 8 2 55 11 104 20 48 9 108 25 132 35 24 11 44
17 44 14 0 -3 7 2 16 11 9 9 23 14 30 11 8 -3 14 -2 14 3 0 4 11 13 25 19 14
6 25 18 25 27 0 18 -12 19 -27 4 -9 -9 -10 -7 -6 10 4 17 1 21 -21 22 -35 2
-39 3 -54 13 -8 4 -26 3 -43 -4 -26 -11 -32 -10 -51 6 -12 11 -18 13 -14 7 4
-8 1 -13 -8 -13 -9 0 -16 5 -16 11 0 6 -9 8 -20 4 -13 -4 -22 -1 -26 9 -7 18
-34 9 -34 -12 0 -8 -2 -13 -5 -10 -5 5 10 77 35 169 10 36 11 37 66 41 31 3
59 10 63 17 4 7 12 11 17 10 14 -3 56 16 117 55 31 20 61 36 67 36 5 0 10 5
10 11 0 5 4 8 9 5 5 -3 14 1 21 9 7 8 16 15 21 15 4 0 19 10 33 23 19 18 22
26 14 42 -9 15 -7 22 9 35 11 8 22 22 26 30 4 12 6 11 6 -2 1 -10 11 -22 24
-28 20 -10 21 -10 4 4 -17 13 -17 15 -1 24 18 10 11 32 -9 32 -7 0 -6 -4 3
-10 8 -5 11 -10 5 -10 -5 0 -17 5 -25 10 -12 7 -10 11 10 19 14 5 20 10 13 10
-7 1 -10 7 -7 14 3 8 -2 20 -11 27 -8 7 -15 19 -15 26 0 9 -6 11 -17 7 -15 -6
-16 -5 -3 9 8 9 17 12 18 7 5 -14 23 -11 21 4 -5 42 29 47 69 10 14 -12 30
-20 36 -17 6 3 3 -1 -7 -9 -18 -15 -7 -34 13 -22 6 3 10 1 10 -6 0 -7 2 -10 5
-8 12 12 -11 51 -41 70 -37 22 -44 43 -18 53 12 5 15 2 12 -12 -6 -20 17 -47
27 -32 3 6 1 10 -4 10 -6 0 -11 5 -11 11 0 5 4 7 10 4 5 -3 7 0 4 9 -4 10 0
13 14 10 14 -4 18 -13 16 -32 -4 -26 -4 -26 6 2 9 29 5 50 -9 42 -4 -3 -7 3
-8 13 -1 9 8 21 20 27 12 5 20 16 18 24 -2 8 -6 23 -8 33 -4 13 1 17 21 17 16
0 25 4 21 10 -4 6 -11 8 -16 5 -5 -3 -6 1 -3 9 3 8 -2 16 -13 19 -14 4 -14 5
5 6 14 1 22 -5 22 -15 0 -8 4 -13 9 -10 11 7 9 -13 -2 -32 -5 -7 -13 -10 -18
-7 -15 10 -10 -22 6 -35 13 -11 14 -10 9 4 -3 9 -1 16 6 16 6 0 9 3 6 8 -8 14
21 43 38 36 9 -3 13 -10 10 -15 -3 -5 -9 -7 -14 -4 -5 3 -11 1 -14 -4 -8 -12
37 -8 46 4 10 13 10 26 1 23 -15 -4 -51 13 -56 25 -3 7 2 22 10 32 13 19 14
18 8 -7 -5 -18 -3 -28 4 -28 6 0 11 4 11 9 0 6 9 9 19 8 11 0 17 -5 15 -9 -3
-4 4 -8 16 -8 12 0 18 4 15 11 -4 5 3 18 14 28 20 17 30 38 13 27 -10 -6 -47
22 -39 30 4 4 13 1 22 -6 9 -7 18 -10 22 -6 3 3 1 6 -5 6 -7 0 -12 6 -12 14 0
8 9 12 24 11 19 -2 23 1 19 13 -10 27 -46 45 -41 21 2 -6 -3 -13 -10 -14 -7
-2 -8 -1 -3 1 5 3 7 16 5 30 -4 24 11 35 18 12 7 -21 30 4 25 28 -2 13 0 21 5
18 6 -4 7 -21 4 -39 -4 -21 -2 -36 5 -41 7 -4 9 -3 5 4 -3 6 -2 13 3 16 5 3
12 21 15 41 4 19 12 38 19 42 7 5 13 15 14 23 7 44 17 76 28 82 6 4 10 21 9
37 -1 17 2 31 8 31 5 0 7 4 3 9 -3 5 -1 12 4 15 9 6 27 83 23 99 -1 4 5 7 13
7 9 0 12 6 8 16 -8 22 27 167 44 181 10 8 14 22 10 39 -3 15 1 50 8 78 7 28
11 54 9 58 -2 3 0 9 6 13 5 3 10 15 10 25 0 10 6 21 13 23 8 4 8 6 0 6 -13 1
-5 42 11 53 7 5 7 8 -2 8 -7 0 -12 8 -10 18 1 9 -1 23 -5 30 -5 6 -6 12 -2 12
3 0 1 9 -4 19 -8 15 -7 20 6 25 15 6 14 8 -2 20 -17 12 -17 13 -1 19 10 4 14
11 11 17 -3 5 -1 10 5 10 6 0 8 5 5 10 -4 6 -11 8 -16 4 -5 -3 -17 0 -25 7
-12 10 -13 9 -8 -4 4 -12 1 -15 -15 -12 -13 2 -22 -3 -26 -16 -4 -10 -13 -19
-21 -19 -8 0 -17 -7 -20 -15 -4 -8 -10 -15 -16 -15 -21 0 -170 -179 -183 -222
-4 -10 -11 -18 -16 -18 -5 0 -9 -7 -9 -15 0 -8 -5 -15 -11 -15 -5 0 -8 -4 -4
-9 3 -5 0 -13 -5 -16 -6 -4 -15 -17 -20 -28 -5 -12 -23 -44 -40 -72 -31 -52
-79 -147 -102 -202 -7 -18 -16 -33 -20 -33 -5 0 -8 -7 -8 -15 0 -8 -4 -15 -10
-15 -5 0 -10 -5 -10 -11 0 -15 -32 -81 -46 -97 -7 -6 -16 -22 -20 -35 -4 -12
-19 -38 -33 -57 -15 -19 -33 -47 -40 -62 -8 -16 -18 -28 -23 -28 -4 0 -8 -7
-8 -15 0 -9 -7 -18 -15 -21 -8 -4 -15 -11 -15 -18 0 -14 -120 -137 -163 -168
-29 -21 -29 -21 -19 -1 6 11 10 22 7 24 -5 6 -15 133 -16 199 0 30 -5 78 -10
107 -7 37 -7 58 1 73 13 25 21 130 10 145 -11 15 0 86 13 78 6 -3 7 -1 3 5
-11 18 -36 15 -30 -3 4 -8 1 -15 -6 -15 -9 0 -11 11 -7 38 6 34 5 35 -8 18
-12 -16 -18 -17 -27 -8 -7 7 -8 12 -2 12 5 0 3 4 -5 9 -12 8 -11 12 3 27 15
14 19 15 26 3 5 -7 12 -11 15 -7 4 3 -3 16 -16 29 l-22 22 27 -5 c14 -3 29 -2
31 2 3 4 -6 10 -20 12 -19 4 -32 -4 -61 -39 -22 -26 -41 -40 -46 -35 -9 9 -11
20 -23 97 -10 69 -47 240 -54 245 -3 3 -7 16 -9 30 -1 14 -5 32 -8 40 -4 8 -8
25 -10 38 -1 13 -12 42 -23 65 -11 23 -23 57 -27 75 -4 19 -13 32 -21 32 -10
0 -14 7 -10 19 3 11 -2 29 -10 41 -8 11 -12 27 -9 35 3 9 -1 15 -10 15 -10 0
-13 7 -8 25 5 19 2 25 -10 25 -19 0 -22 20 -3 20 6 1 1 7 -13 15 -30 17 -44
19 -35 5 3 -5 1 -10 -4 -10 -6 0 -11 7 -11 15 0 8 -4 15 -9 15 -5 0 -1 -24 10
-52 10 -29 20 -64 23 -78 3 -14 12 -34 21 -45 9 -11 13 -14 9 -6 -5 10 -3 12
5 6 9 -5 9 -11 3 -17 -7 -7 -7 -19 0 -37 5 -14 12 -39 15 -56 3 -16 11 -48 18
-70 18 -59 50 -200 60 -270 3 -16 9 -55 15 -85 6 -30 13 -74 15 -97 7 -68 15
-123 20 -146 2 -12 7 -58 10 -102 3 -44 8 -98 10 -120 20 -175 6 -616 -25
-815 -6 -41 -13 -88 -15 -105 -3 -16 -8 -43 -11 -60 -4 -16 -8 -39 -10 -50
-10 -77 -90 -351 -105 -360 -5 -4 -9 -15 -9 -27 0 -11 -8 -32 -18 -46 -10 -15
-27 -47 -37 -72 -10 -25 -24 -52 -30 -60 -6 -8 -21 -35 -35 -60 -29 -54 -89
-142 -104 -152 -6 -4 -8 -8 -3 -8 9 0 -20 -46 -48 -77 -11 -12 -33 -38 -50
-57 -40 -48 -161 -171 -199 -203 -17 -13 -47 -38 -66 -54 -57 -46 -184 -139
-192 -139 -4 0 -19 -11 -34 -25 -15 -14 -52 -37 -83 -51 -31 -15 -64 -34 -75
-43 -10 -9 -21 -15 -25 -14 -11 5 -41 -8 -41 -18 0 -5 -5 -9 -11 -9 -5 0 -43
-15 -82 -34 -109 -51 -144 -66 -156 -66 -6 0 -11 -5 -11 -11 0 -5 -4 -8 -8 -5
-5 3 -21 -2 -36 -10 -16 -7 -33 -14 -38 -14 -6 0 -24 -6 -41 -14 -18 -8 -61
-24 -97 -36 -36 -12 -74 -26 -85 -31 -11 -4 -56 -18 -100 -30 -44 -12 -88 -26
-99 -31 -10 -6 -28 -12 -40 -14 -11 -2 -46 -10 -76 -19 -30 -9 -86 -23 -125
-31 -38 -9 -74 -17 -80 -18 -11 -3 -105 -23 -150 -32 -36 -7 -218 -33 -225
-31 -3 0 -25 -3 -50 -6 -143 -22 -280 -34 -489 -42 -73 -3 -137 -8 -142 -11
-5 -3 -9 -2 -9 3 0 4 -66 8 -148 9 -182 1 -409 15 -482 29 -14 2 -54 7 -90 10
-36 4 -84 11 -108 16 -24 5 -48 7 -53 4 -5 -4 -9 -1 -9 5 0 6 -4 9 -9 6 -5 -4
-41 1 -80 9 -39 8 -84 17 -100 20 -17 3 -42 10 -57 15 -15 6 -29 9 -31 6 -3
-2 -37 5 -76 16 -40 11 -83 22 -96 24 -14 3 -70 20 -125 38 -56 19 -130 43
-166 54 -128 41 -245 82 -262 92 -10 5 -22 10 -27 10 -15 0 -126 52 -309 143
-208 105 -216 109 -222 116 -3 3 -25 19 -49 35 -25 16 -50 33 -55 37 -6 5 -42
33 -81 62 -50 38 -69 59 -67 73 2 14 0 15 -6 6 -7 -10 -26 4 -74 55 -36 37
-79 84 -94 103 -16 19 -31 37 -34 40 -93 90 -317 460 -333 551 -3 15 -10 35
-15 45 -10 19 -23 50 -28 69 -10 41 -16 73 -16 88 1 9 -3 17 -7 17 -7 0 -17
40 -26 105 -1 6 -4 17 -7 25 -6 17 -43 227 -54 305 -4 28 -9 59 -11 70 -8 46
-11 655 -3 710 5 33 11 98 14 145 6 77 16 148 47 325 5 33 12 75 14 93 2 18 7
36 10 41 3 5 11 40 19 78 17 80 17 83 50 193 30 98 30 104 14 94 -9 -6 -9 -3
0 9 8 9 11 21 7 26 -3 7 0 8 9 5 11 -4 16 0 16 12 0 11 6 31 14 46 11 21 11
28 1 31 -17 7 -27 47 -11 47 7 0 18 11 23 23 9 18 8 24 -2 24 -7 0 -11 -6 -8
-12z m-27 -131 c0 -8 -19 -13 -24 -6 -3 5 1 9 9 9 8 0 15 -2 15 -3z m-1380
-388 c-7 -7 -13 -7 -20 0 -6 6 -3 10 10 10 13 0 16 -4 10 -10z m-20 -50 c0
-11 -19 -15 -25 -6 -3 5 1 10 9 10 9 0 16 -2 16 -4z m19 -74 c1 -7 -3 -10 -9
-7 -5 3 -10 18 -9 33 0 24 1 25 9 7 5 -11 9 -26 9 -33z m9078 -144 c-3 -8 -6
-5 -6 6 -1 11 2 17 5 13 3 -3 4 -12 1 -19z m-8076 -75 c-12 -20 -14 -14 -5 12
4 9 9 14 11 11 3 -2 0 -13 -6 -23z m3 -54 c-8 -13 -43 3 -37 17 4 10 9 11 23
2 10 -7 17 -15 14 -19z m-9 -23 c8 -7 11 -16 8 -19 -5 -6 -33 17 -33 27 0 10
11 7 25 -8z m7127 2 c-9 -9 -15 -9 -24 0 -9 9 -7 12 12 12 19 0 21 -3 12 -12z
m28 -53 c0 -13 -35 -13 -47 0 -5 4 -2 5 5 1 6 -4 12 -3 12 2 0 5 7 9 15 9 8 0
15 -6 15 -12z m-1 -119 c10 -12 8 -17 -9 -26 -20 -10 -21 -10 -11 8 6 11 7 22
4 26 -3 3 -4 6 -1 6 3 0 11 -6 17 -14z m-17 -78 c-8 -8 -9 -4 -5 13 4 13 8 18
11 10 2 -7 -1 -18 -6 -23z m773 12 c3 -5 1 -10 -4 -10 -6 0 -11 5 -11 10 0 6
2 10 4 10 3 0 8 -4 11 -10z m20 -30 c3 -5 -1 -10 -9 -10 -9 0 -16 5 -16 10 0
6 4 10 9 10 6 0 13 -4 16 -10z m-800 -10 c-3 -5 -1 -10 4 -10 6 0 11 -17 10
-37 0 -29 -2 -33 -8 -18 -17 42 -21 75 -11 75 6 0 8 -4 5 -10z m765 -20 c0 -5
-4 -10 -9 -10 -6 0 -13 5 -16 10 -3 6 1 10 9 10 9 0 16 -4 16 -10z m-8600 -10
c0 -5 -7 -10 -16 -10 -8 0 -12 5 -9 10 3 6 10 10 16 10 5 0 9 -4 9 -10z m8556
-95 c1 -8 -2 -15 -7 -15 -5 0 -9 10 -9 22 0 23 12 17 16 -7z m-8409 -41 c-3
-3 -12 -4 -19 -1 -8 3 -5 6 6 6 11 1 17 -2 13 -5z m8350 -26 c-3 -8 -6 -5 -6
6 -1 11 2 17 5 13 3 -3 4 -12 1 -19z m-8337 -8 c0 -5 -2 -10 -4 -10 -3 0 -8 5
-11 10 -3 6 -1 10 4 10 6 0 11 -4 11 -10z m30 -20 c6 -11 8 -20 6 -20 -3 0
-10 9 -16 20 -6 11 -8 20 -6 20 3 0 10 -9 16 -20z m8242 -54 c-9 -19 -18 -30
-20 -26 -3 8 26 60 34 60 2 0 -4 -15 -14 -34z m78 -6 c0 -5 -6 -10 -14 -10 -8
0 -18 5 -21 10 -3 6 3 10 14 10 12 0 21 -4 21 -10z m30 -4 c0 -3 -4 -8 -10
-11 -5 -3 -10 -1 -10 4 0 6 5 11 10 11 6 0 10 -2 10 -4z m-140 -10 c0 -3 -4
-8 -10 -11 -5 -3 -10 -1 -10 4 0 6 5 11 10 11 6 0 10 -2 10 -4z m-83 -71 c-15
-16 -19 -13 -11 9 3 9 10 13 15 10 5 -3 3 -11 -4 -19z m44 -57 c12 -22 12 -22
-14 -5 -32 21 -41 21 -61 1 -9 -8 -16 -11 -16 -5 0 14 30 30 57 31 13 0 27 -9
34 -22z m-31 -19 c0 -5 -4 -8 -9 -5 -5 4 -7 -2 -4 -13 6 -25 -13 -36 -32 -17
-19 19 -19 30 0 22 9 -3 15 0 15 9 0 8 7 15 15 15 8 0 15 -5 15 -11z m-70 -52
c0 -2 -10 -12 -21 -23 -22 -19 -22 -19 -8 4 12 19 29 30 29 19z m-69 -134 c6
-36 4 -53 -7 -57 -7 -3 -16 0 -20 6 -4 7 -9 6 -15 -3 -7 -12 -9 -12 -9 -1 0 8
9 16 20 19 11 3 20 10 20 15 0 6 -9 8 -19 5 -14 -3 -18 -1 -14 9 5 14 42 20
44 7z m-7791 -24 c0 -14 -17 -10 -23 5 -4 10 -1 13 9 9 7 -3 14 -9 14 -14z
m7753 -64 c4 -8 2 -17 -3 -20 -6 -4 -10 3 -10 14 0 25 6 27 13 6z m27 5 c0 -5
-2 -10 -4 -10 -3 0 -8 5 -11 10 -3 6 -1 10 4 10 6 0 11 -4 11 -10z m-7450
-483 c0 -2 -8 -13 -18 -25 -19 -21 -51 -15 -38 7 4 6 11 9 15 7 4 -3 13 -1 21
5 16 10 20 11 20 6z m45 -18 c11 -17 -1 -21 -15 -4 -8 9 -8 15 -2 15 6 0 14
-5 17 -11z m6914 -46 c-13 -16 -25 -30 -26 -32 -2 -2 -3 0 -3 5 0 14 33 54 44
54 5 0 -1 -12 -15 -27z m195 12 c-4 -8 -11 -12 -16 -9 -6 4 -5 10 3 15 19 12
19 11 13 -6z m-3254 -1850 c-7 -8 -17 -12 -23 -8 -6 4 -3 9 9 14 27 11 28 11
14 -6z m-540 -1 c0 -8 -19 -13 -24 -6 -3 5 1 9 9 9 8 0 15 -2 15 -3z m413 -1
c-7 -2 -19 -2 -25 0 -7 3 -2 5 12 5 14 0 19 -2 13 -5z m87 -8 c0 -8 -5 -15
-11 -15 -5 0 -7 5 -4 10 9 14 -9 12 -24 -2 -10 -11 -11 -10 -6 5 9 21 45 23
45 2z m-127 -12 c-7 -2 -19 -2 -25 0 -7 3 -2 5 12 5 14 0 19 -2 13 -5z m920
-20 c-6 -14 -33 -18 -33 -5 0 12 8 19 24 19 8 0 12 -6 9 -14z m152 -148 c10
-33 17 -61 17 -62 0 -2 6 -26 14 -55 8 -29 17 -64 20 -78 3 -14 9 -41 14 -60
21 -78 41 -252 44 -375 9 -331 -69 -662 -181 -773 -21 -21 -40 -32 -49 -28 -8
3 -13 2 -10 -3 8 -12 -22 -23 -37 -14 -7 3 -8 2 -4 -2 10 -11 -80 -34 -111
-29 -13 3 -30 0 -38 -7 -8 -6 -14 -7 -14 -2 0 5 -21 10 -46 12 -35 1 -44 -1
-39 -11 4 -7 -3 -3 -16 9 -71 66 -97 84 -101 67 -3 -14 -6 -13 -22 5 -19 21
-19 21 5 21 24 0 23 0 -5 19 -16 11 -33 27 -38 36 -5 8 -13 13 -18 10 -5 -3
-11 8 -15 25 -4 16 -11 32 -16 35 -5 4 -9 16 -9 29 0 13 -9 31 -20 41 -11 10
-20 28 -20 40 0 27 -22 47 -47 44 -27 -4 -64 11 -57 23 4 6 0 14 -7 19 -7 4
-10 12 -5 16 5 4 11 2 13 -4 7 -18 33 -16 33 3 0 8 -4 13 -9 10 -5 -4 -20 -2
-34 3 -22 9 -24 8 -19 -12 5 -20 4 -20 -11 -8 -9 7 -14 18 -10 25 4 7 1 6 -9
-1 -8 -7 -18 -10 -21 -6 -4 3 -7 2 -7 -4 0 -6 -9 -13 -20 -16 -11 -3 -20 -2
-20 1 0 4 -17 7 -38 6 -22 0 -36 -5 -35 -12 2 -6 -4 -9 -13 -5 -12 5 -13 7 -3
14 8 4 10 11 7 15 -4 3 -19 -3 -34 -15 -16 -13 -31 -18 -36 -13 -5 5 -27 6
-49 2 -22 -4 -42 -3 -45 2 -3 5 -16 2 -30 -6 -27 -18 -38 -20 -29 -6 3 6 0 10
-9 10 -8 0 -16 -5 -18 -10 -2 -7 -14 -7 -36 -1 -20 6 -30 6 -27 0 8 -11 -2
-11 -43 0 -20 6 -32 6 -32 0 0 -18 -17 -8 -29 17 -6 15 -14 24 -18 21 -3 -4
-1 -13 6 -20 17 -21 -78 -20 -101 1 -16 14 -18 13 -18 -2 0 -10 -5 -14 -11
-11 -6 4 -8 14 -4 22 5 13 3 14 -11 3 -9 -8 -18 -10 -22 -4 -4 5 -16 10 -27
12 -16 2 -17 1 -6 -7 16 -11 26 -51 12 -51 -5 0 -11 7 -14 15 -4 9 -16 13 -37
10 -29 -3 -40 7 -20 20 16 10 12 25 -7 25 -14 0 -15 -2 -4 -9 17 -11 -1 -23
-23 -15 -20 8 -21 -10 -1 -26 12 -10 13 -16 4 -24 -8 -8 -13 -8 -16 2 -3 6 -9
12 -15 12 -6 0 -8 -6 -5 -14 3 -8 -1 -20 -9 -26 -10 -9 -14 -9 -14 -1 0 6 -7
11 -16 11 -8 0 -13 -4 -9 -9 3 -5 1 -12 -5 -16 -5 -3 -10 -17 -10 -30 0 -13
-4 -27 -10 -30 -5 -3 -10 -14 -10 -25 0 -10 -7 -20 -15 -24 -8 -3 -15 -12 -15
-21 0 -8 -5 -15 -11 -15 -5 0 -8 -4 -5 -9 3 -5 -6 -16 -20 -26 -15 -9 -23 -22
-20 -30 3 -8 0 -17 -6 -21 -7 -5 -8 -2 -3 6 6 9 4 11 -4 6 -7 -5 -10 -15 -7
-23 3 -8 2 -12 -3 -9 -10 7 -71 -16 -71 -26 0 -13 28 -9 33 5 2 6 8 9 12 4 5
-4 0 -13 -10 -21 -16 -12 -23 -11 -45 2 -14 9 -22 12 -17 7 8 -10 -51 -75 -67
-75 -6 0 -4 5 4 10 13 8 12 10 -2 10 -10 0 -18 5 -18 11 0 5 -5 7 -12 3 -8 -5
-9 -2 -4 12 4 11 -4 6 -21 -13 -20 -22 -33 -29 -43 -23 -7 4 -21 7 -31 5 -10
-2 -42 5 -71 15 -29 11 -44 20 -33 20 16 0 17 2 6 9 -8 5 -20 7 -28 4 -7 -3
-13 0 -13 7 0 6 -5 8 -11 5 -13 -9 -47 21 -66 60 -9 16 -19 32 -22 35 -20 16
-70 177 -87 284 -3 21 -8 48 -11 60 -28 109 -24 436 8 616 12 69 23 135 24
147 2 12 15 63 29 115 15 51 32 111 38 133 34 123 32 120 78 118 28 -1 50 -9
67 -25 15 -12 23 -16 19 -8 -5 9 -2 8 7 -2 8 -10 29 -21 48 -24 19 -4 39 -11
46 -16 7 -5 14 -5 18 2 3 5 -1 10 -10 10 -11 0 -15 7 -13 20 4 27 21 28 33 1
12 -25 27 -28 19 -3 -4 13 -2 12 7 -3 24 -38 39 -49 52 -36 6 6 16 11 21 11 6
0 3 -5 -6 -11 -22 -12 -23 -29 -3 -29 8 0 15 6 15 13 0 9 3 8 9 -2 7 -10 10
-10 16 -1 4 7 2 16 -5 20 -7 5 -8 10 -2 14 5 3 15 -1 22 -9 7 -8 17 -12 22 -9
6 4 13 2 17 -5 4 -6 19 -12 34 -13 15 -1 27 -6 27 -11 0 -5 -7 -7 -14 -4 -10
4 -13 1 -9 -9 4 -11 9 -12 16 -5 6 6 20 11 30 11 16 0 17 -3 7 -15 -7 -8 -9
-15 -5 -15 4 0 14 8 21 18 9 10 17 13 21 7 9 -11 21 -15 71 -22 27 -4 32 -1
32 15 0 13 8 21 23 24 17 3 23 0 23 -14 0 -10 -7 -18 -16 -18 -12 0 -13 -2 -1
-9 11 -7 10 -10 -5 -13 -10 -2 6 -4 37 -4 43 1 56 4 55 16 -1 11 8 15 32 14
23 -2 32 2 32 15 1 14 2 14 14 -2 10 -13 15 -15 19 -5 2 7 8 10 12 6 4 -4 2
-14 -5 -23 -7 -9 -11 -17 -9 -18 2 -1 11 -8 20 -15 13 -9 16 -9 16 3 0 8 -4
12 -9 9 -4 -3 -8 2 -8 10 0 19 11 21 28 4 7 -7 12 -8 12 -2 0 14 31 14 49 0
12 -9 13 -7 8 8 -6 14 -4 17 9 12 8 -3 20 -6 26 -6 7 0 6 -5 -1 -14 -10 -12
-8 -13 9 -9 11 3 19 8 16 10 -3 3 0 11 7 18 8 9 15 9 24 1 42 -37 61 -48 48
-26 -3 5 -2 18 4 27 9 17 10 17 16 1 4 -10 13 -14 22 -11 10 4 14 2 10 -4 -4
-6 0 -14 9 -17 11 -4 15 -2 11 8 -4 10 -1 13 8 10 8 -3 11 -13 8 -22 -3 -11 0
-9 11 4 13 19 21 21 50 14 24 -5 37 -4 40 4 3 7 8 6 15 -4 7 -10 11 -11 11 -2
0 6 12 13 28 13 l27 2 -27 4 c-16 2 -28 9 -28 15 0 6 12 8 30 4 17 -3 29 -2
25 3 -3 5 4 7 15 4 21 -6 28 -23 9 -23 -6 0 -3 -7 6 -17 14 -13 18 -14 25 -3
5 8 6 18 4 22 -3 4 0 16 5 25 10 17 10 16 11 -2 1 -12 4 -15 7 -7 4 10 8 10
20 1 9 -8 17 -9 21 -3 9 12 72 15 72 3 0 -5 9 -9 21 -9 13 0 18 4 13 13 -6 10
-4 10 7 0 16 -15 33 -17 24 -3 -9 14 21 12 37 -2 20 -19 70 -18 63 2 -4 11 -2
11 8 -2 8 -10 17 -15 20 -11 4 3 7 1 7 -5 0 -6 -4 -14 -10 -17 -5 -3 -10 -1
-10 6 0 9 -3 9 -14 0 -11 -9 -15 -9 -18 0 -3 10 -11 8 -28 -4 -14 -9 -19 -17
-13 -17 7 0 15 5 19 11 4 8 9 8 17 0 17 -17 42 -13 62 9 10 11 14 20 9 20 -5
0 -1 5 9 11 13 8 22 7 34 -3 12 -9 15 -9 9 0 -5 8 0 12 15 12 18 0 20 -2 8
-16 -11 -13 -9 -14 17 -9 48 11 56 14 50 24 -3 5 2 15 11 22 14 12 15 11 9 -9
-8 -24 3 -29 21 -11 6 6 9 19 6 28 -4 14 -3 14 6 1 8 -12 12 -10 20 10 5 14
10 19 10 11 1 -8 -9 -25 -21 -38 -18 -20 -13 -35 6 -16 3 4 13 8 20 9 27 4 66
37 66 56 0 10 5 16 10 13 14 -9 12 -42 -2 -48 -10 -4 -10 -6 -1 -6 7 -1 19 12
28 29 10 19 20 27 30 24 19 -8 19 -24 0 -24 -8 0 -15 -4 -15 -10 0 -15 29 0
41 21 5 11 14 17 20 14 5 -4 9 0 9 7 0 10 2 10 8 1 6 -10 30 -11 52 -3 3 1 9
2 14 1 5 -1 12 3 16 9 4 6 19 12 33 14 15 1 30 6 34 9 6 7 22 -36 58 -158z
m-2235 105 c0 -5 -9 -10 -20 -10 -11 0 -20 5 -20 10 0 6 9 10 20 10 11 0 20
-4 20 -10z m1860 -20 c0 -5 -4 -10 -10 -10 -5 0 -10 5 -10 10 0 6 5 10 10 10
6 0 10 -4 10 -10z m-133 -17 c-4 -3 -2 -12 4 -20 7 -8 8 -13 1 -13 -5 0 -15 6
-21 14 -9 11 -9 15 1 19 19 8 22 8 15 0z m-1327 -31 c0 -14 -11 -21 -26 -15
-21 8 -17 23 6 23 11 0 20 -4 20 -8z m690 -17 c-14 -16 -25 -21 -16 -6 4 5 0
12 -6 14 -7 3 -2 6 11 6 20 1 21 -1 11 -14z m-1697 -198 c4 3 7 1 7 -5 0 -17
-16 -15 -31 6 -12 15 -12 16 2 5 9 -7 19 -10 22 -6z m1257 -897 c8 -5 11 -10
5 -10 -5 0 -17 5 -25 10 -8 5 -10 10 -5 10 6 0 17 -5 25 -10z m804 -95 c3 -8
1 -15 -3 -15 -5 0 -11 7 -15 15 -3 8 -1 15 3 15 5 0 11 -7 15 -15z m-1369
-305 c3 -5 -1 -10 -10 -10 -9 0 -13 5 -10 10 3 6 8 10 10 10 2 0 7 -4 10 -10z
m110 -10 c-3 -5 -12 -10 -18 -10 -7 0 -6 4 3 10 19 12 23 12 15 0z"/>
<path d="M4120 2580 c0 -5 5 -10 10 -10 6 0 10 5 10 10 0 6 -4 10 -10 10 -5 0
-10 -4 -10 -10z"/>
<path d="M4160 2540 c8 -5 20 -10 25 -10 6 0 3 5 -5 10 -8 5 -19 10 -25 10 -5
0 -3 -5 5 -10z"/>
<path d="M4304 2508 c-5 -8 -2 -9 9 -5 10 3 17 2 17 -4 0 -6 5 -7 11 -3 8 4 7
9 -2 15 -19 12 -27 11 -35 -3z"/>
<path d="M5725 2490 c3 -5 14 -10 23 -10 15 0 15 2 2 10 -20 13 -33 13 -25 0z"/>
<path d="M4689 2461 c12 -22 48 -34 48 -16 0 7 -6 11 -14 8 -7 -3 -13 2 -13
11 0 9 -7 16 -15 16 -12 0 -13 -4 -6 -19z"/>
<path d="M4970 2460 c0 -5 5 -10 10 -10 6 0 10 5 10 10 0 6 -4 10 -10 10 -5 0
-10 -4 -10 -10z"/>
<path d="M5306 2453 c-6 -14 -5 -15 5 -6 7 7 10 15 7 18 -3 3 -9 -2 -12 -12z"/>
<path d="M4755 2430 c3 -5 8 -10 11 -10 2 0 4 5 4 10 0 6 -5 10 -11 10 -5 0
-7 -4 -4 -10z"/>
<path d="M5615 1460 c-3 -5 -2 -10 4 -10 5 0 13 5 16 10 3 6 2 10 -4 10 -5 0
-13 -4 -16 -10z"/>
<path d="M5583 1439 c-2 -23 3 -25 10 -4 4 8 3 16 -1 19 -4 3 -9 -4 -9 -15z"/>
<path d="M1920 6920 c-13 -8 -12 -10 3 -10 9 0 17 5 17 10 0 12 -1 12 -20 0z"/>
<path d="M9707 6719 c7 -7 15 -10 18 -7 3 3 -2 9 -12 12 -14 6 -15 5 -6 -5z"/>
<path d="M9660 6670 c0 -5 5 -10 10 -10 6 0 10 5 10 10 0 6 -4 10 -10 10 -5 0
-10 -4 -10 -10z"/>
<path d="M430 6660 c0 -5 5 -10 11 -10 5 0 7 5 4 10 -3 6 -8 10 -11 10 -2 0
-4 -4 -4 -10z"/>
<path d="M455 6630 c-4 -6 -10 -8 -14 -6 -4 3 -12 -3 -18 -13 -9 -14 -8 -18 3
-18 7 0 11 4 8 9 -3 4 7 8 23 9 15 0 22 3 15 6 -6 2 -10 9 -6 14 3 5 3 9 0 9
-3 0 -8 -5 -11 -10z"/>
<path d="M9700 6580 c-9 -6 -10 -10 -3 -10 6 0 15 5 18 10 8 12 4 12 -15 0z"/>
<path d="M420 6570 c-12 -7 -12 -11 -2 -20 6 -5 10 -7 7 -4 -3 4 0 13 6 21 13
15 10 16 -11 3z"/>
<path d="M9664 6545 c-10 -8 -14 -15 -8 -15 6 0 17 7 24 15 16 19 9 19 -16 0z"/>
<path d="M9747 6535 c-4 -8 -2 -17 3 -20 6 -4 10 3 10 14 0 25 -6 27 -13 6z"/>
<path d="M9679 6463 c-13 -16 -12 -17 4 -4 9 7 17 15 17 17 0 8 -8 3 -21 -13z"/>
<path d="M413 6316 c0 -15 3 -29 8 -32 11 -7 11 27 0 45 -6 9 -8 5 -8 -13z"/>
<path d="M9634 6299 c-3 -6 -2 -15 4 -21 6 -6 12 -6 17 3 6 8 4 10 -5 4 -10
-6 -12 -4 -7 8 7 19 2 23 -9 6z"/>
<path d="M9612 6270 c0 -14 2 -19 5 -12 2 6 2 18 0 25 -3 6 -5 1 -5 -13z"/>
<path d="M466 6223 c-6 -14 -5 -15 5 -6 7 7 10 15 7 18 -3 3 -9 -2 -12 -12z"/>
<path d="M9620 6230 c0 -5 5 -10 11 -10 5 0 7 5 4 10 -3 6 -8 10 -11 10 -2 0
-4 -4 -4 -10z"/>
<path d="M3070 6200 c-82 -14 -204 -60 -260 -97 -86 -58 -204 -183 -241 -255
-62 -124 -73 -146 -86 -183 -41 -118 -60 -295 -41 -393 5 -26 11 -62 14 -80 5
-39 26 -98 62 -172 27 -56 39 -73 82 -121 14 -15 45 -50 69 -78 25 -28 49 -51
54 -51 6 0 25 -11 44 -26 18 -14 47 -30 63 -36 17 -5 30 -14 30 -19 0 -5 8 -9
18 -9 9 0 30 -7 45 -15 64 -33 230 -64 312 -58 11 1 47 2 80 3 108 4 228 39
335 96 25 14 60 32 78 41 17 9 32 23 32 30 0 7 5 13 11 13 6 0 18 7 27 16 59
55 102 99 102 106 0 4 9 17 20 28 12 12 18 25 15 29 -2 5 2 11 10 15 8 3 15
14 15 24 0 11 6 25 13 31 8 6 19 30 27 53 7 24 15 50 18 58 14 38 29 215 25
292 -4 81 -66 298 -85 298 -4 0 -8 6 -8 14 0 27 -84 142 -149 204 -84 80 -90
85 -129 101 -18 7 -32 17 -32 22 0 5 -7 9 -15 9 -8 0 -15 3 -15 8 0 4 -12 12
-27 19 -73 31 -141 56 -173 63 -19 5 -46 11 -60 15 -37 11 -228 14 -280 5z
m138 -241 c138 -45 199 -164 157 -306 -16 -54 -95 -146 -145 -170 -109 -52
-285 -36 -348 31 -88 93 -79 267 17 363 52 51 131 90 196 96 22 2 44 4 48 5 4
1 38 -8 75 -19z m-278 -619 c11 -11 20 -31 20 -45 0 -26 -31 -65 -52 -65 -54
1 -95 50 -79 93 16 41 77 51 111 17z m660 -95 c32 -39 -51 -150 -108 -143 -73
8 -13 158 63 158 18 0 38 -7 45 -15z"/>
<path d="M6831 6198 c-13 -4 -27 -6 -31 -3 -5 3 -11 1 -14 -4 -3 -4 -24 -11
-46 -15 -49 -8 -170 -55 -188 -73 -7 -7 -24 -16 -38 -19 -13 -3 -24 -10 -24
-15 0 -5 -8 -13 -17 -16 -10 -4 -27 -17 -39 -30 -12 -13 -25 -23 -30 -23 -5
-1 -27 -24 -49 -51 -22 -28 -44 -56 -50 -62 -40 -47 -90 -135 -126 -222 -16
-38 -38 -140 -45 -205 -3 -36 -8 -68 -10 -71 -2 -3 3 -50 11 -105 25 -167 72
-278 170 -402 47 -59 190 -172 218 -172 5 0 22 -9 38 -21 16 -11 29 -17 29
-13 0 3 6 1 14 -5 21 -18 144 -51 206 -57 46 -4 97 -4 230 -2 28 0 185 40 194
49 6 5 18 9 28 9 10 0 18 5 18 10 0 6 6 10 14 10 28 0 185 94 216 129 75 85
120 143 141 181 13 25 28 48 32 51 5 3 8 8 7 10 -3 7 13 64 20 74 4 6 11 30
14 55 3 25 8 59 10 75 38 260 -84 591 -278 755 -22 19 -49 42 -59 51 -9 9 -30
22 -45 30 -15 8 -29 17 -32 20 -3 3 -34 16 -70 28 -36 13 -74 27 -85 33 -41
19 -293 31 -334 16z m307 -240 c84 -21 170 -92 212 -173 30 -60 29 -183 -3
-222 -5 -7 -6 -13 -2 -13 3 0 -8 -12 -27 -27 -18 -15 -35 -30 -38 -33 -35 -36
-170 -49 -256 -25 -32 10 -68 26 -80 36 -11 11 -24 19 -29 19 -16 0 -67 65
-92 119 -22 45 -25 63 -21 116 9 105 55 165 157 201 46 17 119 17 179 2z m212
-618 c26 -26 25 -48 -2 -77 -29 -31 -81 -31 -102 -1 -22 31 -20 45 9 73 29 30
68 32 95 5z m-669 -86 c41 -21 73 -91 59 -128 -16 -43 -59 -35 -109 19 -47 51
-53 86 -19 109 28 20 32 20 69 0z"/>
<path d="M1440 6129 c0 -5 5 -7 10 -4 6 3 10 8 10 11 0 2 -4 4 -10 4 -5 0 -10
-5 -10 -11z"/>
<path d="M620 5950 c0 -5 5 -10 11 -10 5 0 7 5 4 10 -3 6 -8 10 -11 10 -2 0
-4 -4 -4 -10z"/>
<path d="M812 5629 c2 -6 8 -10 13 -10 5 0 11 4 13 10 2 6 -4 11 -13 11 -9 0
-15 -5 -13 -11z"/>
<path d="M810 5530 c0 -5 5 -10 11 -10 5 0 7 5 4 10 -3 6 -8 10 -11 10 -2 0
-4 -4 -4 -10z"/>
<path d="M994 5470 c1 -17 -5 -26 -19 -28 -20 -4 -20 -3 -1 11 13 9 15 16 8
21 -6 4 -16 -4 -23 -16 -7 -13 -18 -27 -25 -31 -8 -4 -14 -16 -14 -25 1 -16 1
-16 11 1 5 9 20 17 32 17 12 1 32 6 45 14 23 12 23 13 4 36 l-19 23 1 -23z"/>
<path d="M9265 5420 c-3 -5 -1 -10 4 -10 6 0 11 5 11 10 0 6 -2 10 -4 10 -3 0
-8 -4 -11 -10z"/>
<path d="M967 5399 c7 -7 15 -10 18 -7 3 3 -2 9 -12 12 -14 6 -15 5 -6 -5z"/>
<path d="M1000 5339 c-12 -9 -11 -10 7 -6 12 3 21 2 20 -2 -1 -3 1 -7 6 -8 4
-2 7 -1 7 2 0 3 0 10 0 15 0 13 -21 13 -40 -1z"/>
<path d="M940 5309 c0 -5 5 -7 10 -4 6 3 10 8 10 11 0 2 -4 4 -10 4 -5 0 -10
-5 -10 -11z"/>
<path d="M987 5303 c-4 -3 -7 -13 -7 -21 0 -18 13 -7 16 13 2 17 1 18 -9 8z"/>
<path d="M9166 5291 c-4 -7 -5 -15 -2 -18 9 -9 19 4 14 18 -4 11 -6 11 -12 0z"/>
<path d="M9216 5275 c4 -8 10 -12 15 -9 11 6 2 24 -11 24 -5 0 -7 -7 -4 -15z"/>
<path d="M985 5260 c-19 -8 -19 -9 3 -9 12 -1 22 4 22 9 0 6 -1 10 -2 9 -2 0
-12 -4 -23 -9z"/>
<path d="M1084 5214 c-18 -14 -18 -14 6 -3 31 14 36 19 24 19 -6 0 -19 -7 -30
-16z"/>
<path d="M9028 5199 c17 -19 15 -29 -10 -38 -13 -5 -17 -10 -11 -14 6 -4 18 0
26 8 20 19 27 19 27 0 0 -8 -3 -14 -7 -14 -18 3 -33 -2 -33 -10 0 -4 19 -8 42
-8 37 0 40 1 23 13 -14 10 -15 17 -7 27 9 11 6 17 -16 27 -44 23 -48 24 -34 9z"/>
<path d="M1071 5124 c0 -11 3 -14 6 -6 3 7 2 16 -1 19 -3 4 -6 -2 -5 -13z"/>
<path d="M5506 5089 c-14 -11 -26 -26 -26 -33 0 -17 -47 -164 -63 -196 -6 -14
-20 -34 -29 -44 -10 -11 -20 -28 -24 -38 -3 -10 -9 -18 -13 -18 -4 0 -16 -9
-28 -19 -29 -27 -95 -59 -115 -56 -10 2 -20 0 -23 -5 -3 -4 -43 -6 -90 -4 -89
5 -167 31 -215 74 -14 12 -30 25 -37 28 -19 12 -83 113 -83 133 0 10 -4 19
-10 19 -5 0 -10 11 -10 24 0 14 -4 27 -9 30 -5 3 -12 23 -16 43 -9 48 -31 73
-64 73 -48 0 -68 -30 -75 -106 -3 -38 4 -67 28 -129 27 -69 41 -90 104 -152
105 -103 233 -160 373 -167 67 -3 180 11 193 24 6 6 16 10 23 10 8 0 29 7 49
15 19 8 37 14 41 14 3 -1 10 6 15 15 5 9 14 16 21 16 11 0 92 80 127 125 40
52 64 121 67 195 4 87 -8 118 -54 136 -28 12 -34 11 -57 -7z"/>
<path d="M9040 5100 c0 -5 5 -10 11 -10 5 0 7 5 4 10 -3 6 -8 10 -11 10 -2 0
-4 -4 -4 -10z"/>
<path d="M8964 4999 c-3 -6 1 -18 9 -27 15 -14 17 -14 23 1 3 9 10 14 15 11 5
-3 9 0 9 6 0 7 -8 9 -21 5 -15 -5 -19 -4 -15 4 4 6 3 11 -3 11 -5 0 -13 -5
-17 -11z"/>
<path d="M8548 4573 c7 -3 16 -2 19 1 4 3 -2 6 -13 5 -11 0 -14 -3 -6 -6z"/>
<path d="M6728 2293 c7 -3 16 -2 19 1 4 3 -2 6 -13 5 -11 0 -14 -3 -6 -6z"/>
<path d="M3580 2206 c0 -9 5 -16 10 -16 6 0 10 4 10 9 0 6 -4 13 -10 16 -5 3
-10 -1 -10 -9z"/>
<path d="M6531 2134 c0 -11 3 -14 6 -6 3 7 2 16 -1 19 -3 4 -6 -2 -5 -13z"/>
<path d="M3489 1876 c-15 -31 -5 -70 23 -96 32 -30 52 -22 56 21 2 27 -3 44
-23 68 -32 37 -42 39 -56 7z"/>
<path d="M6636 1868 c-20 -19 -25 -34 -27 -78 -3 -60 5 -96 24 -103 7 -3 33 6
57 19 25 14 34 22 20 18 -14 -4 -30 -10 -36 -15 -6 -5 -16 -3 -24 4 -10 9 -11
9 -6 0 4 -7 2 -13 -3 -13 -20 0 -11 20 12 30 13 5 16 9 7 10 -9 0 -11 3 -5 8
33 23 59 96 44 124 -13 24 -33 23 -63 -4z"/>
</g>
</svg>
